<svg width="20" height="20" viewBox="0 0 20 20" fill="none" xmlns="http://www.w3.org/2000/svg">
<path fill-rule="evenodd" clip-rule="evenodd" d="M9.73403 0.447754C9.94447 0.447754 10.1463 0.531351 10.2951 0.680156C10.4439 0.82896 10.5275 1.03078 10.5275 1.24122V9.17592H18.4622C18.6726 9.17592 18.8745 9.25951 19.0233 9.40832C19.1721 9.55712 19.2557 9.75894 19.2557 9.96938C19.2557 10.1798 19.1721 10.3816 19.0233 10.5305C18.8745 10.6793 18.6726 10.7629 18.4622 10.7629H10.5275V18.6975C10.5275 18.908 10.4439 19.1098 10.2951 19.2586C10.1463 19.4074 9.94447 19.491 9.73403 19.491C9.52359 19.491 9.32177 19.4074 9.17297 19.2586C9.02416 19.1098 8.94056 18.908 8.94056 18.6975V10.7629H1.00587C0.79543 10.7629 0.593609 10.6793 0.444804 10.5305C0.296 10.3816 0.212402 10.1798 0.212402 9.96938C0.212402 9.75894 0.296 9.55712 0.444804 9.40832C0.593609 9.25951 0.79543 9.17592 1.00587 9.17592H8.94056V1.24122C8.94056 1.03078 9.02416 0.82896 9.17297 0.680156C9.32177 0.531351 9.52359 0.447754 9.73403 0.447754V0.447754Z" fill="white"/>
</svg>
